<svg width="23" height="23" viewBox="0 0 23 23" fill="none" xmlns="http://www.w3.org/2000/svg">
<g clip-path="url(#clip0_43_946)">
<path d="M9.18304 3.38551V6.16121H1.36061V3.38551H9.18304ZM9.7508 2.25H0.792855C0.477434 2.25 0.225098 2.50234 0.225098 2.81776V6.66589C0.225098 6.98131 0.477434 7.23364 0.792855 7.23364H9.7508C10.0662 7.23364 10.3186 6.98131 10.3186 6.66589V2.81776C10.3186 2.50234 10.0662 2.25 9.7508 2.25ZM21.7999 3.38551V6.16121H13.9774V3.38551H21.7999ZM22.3676 2.25H13.4097C13.0943 2.25 12.8419 2.50234 12.8419 2.81776V6.66589C12.8419 6.98131 13.0943 7.23364 13.4097 7.23364H22.3676C22.683 7.23364 22.9354 6.98131 22.9354 6.66589V2.81776C22.9354 2.50234 22.683 2.25 22.3676 2.25ZM21.7999 10.9556V13.7313H13.9774V10.9556H21.7999ZM22.3676 9.82009H13.4097C13.0943 9.82009 12.8419 10.0724 12.8419 10.3879V14.2991C12.8419 14.6145 13.0943 14.8668 13.4097 14.8668H22.3676C22.683 14.8668 22.9354 14.6145 22.9354 14.2991V10.3879C22.9354 10.0724 22.683 9.82009 22.3676 9.82009ZM9.18304 18.5257V21.3014H1.36061V18.5257H9.18304ZM9.7508 17.4533H0.792855C0.477434 17.4533 0.225098 17.7056 0.225098 18.021V21.9322C0.225098 22.1846 0.477434 22.4369 0.792855 22.4369H9.7508C10.0662 22.4369 10.3186 22.1846 10.3186 21.8692V18.021C10.3186 17.7056 10.0662 17.4533 9.7508 17.4533ZM21.7999 18.5257V21.3014H13.9774V18.5257H21.7999ZM22.3676 17.4533H13.4097C13.0943 17.4533 12.8419 17.7056 12.8419 18.021V21.9322C12.8419 22.2477 13.0943 22.5 13.4097 22.5H22.3676C22.683 22.5 22.9354 22.2477 22.9354 21.9322V18.021C22.9354 17.7056 22.683 17.4533 22.3676 17.4533ZM10.3186 10.3879C10.3186 10.0724 10.0662 9.82009 9.7508 9.82009H0.792855C0.477434 9.82009 0.225098 10.0724 0.225098 10.3879V14.2991C0.225098 14.6145 0.477434 14.8668 0.792855 14.8668H9.7508C10.0662 14.8668 10.3186 14.6145 10.3186 14.2991V10.3879ZM4.64099 13.6051L3.56856 12.5327L3.82089 12.2804L4.64099 13.1005L6.65968 11.0818L6.91201 11.3341L4.64099 13.6051Z" fill="black"/>
</g>
<defs>
<clipPath id="clip0_43_946">
<rect width="22.5" height="22.5" fill="white"/>
</clipPath>
</defs>
</svg>
