<svg width="23" height="23" viewBox="0 0 23 23" fill="none" xmlns="http://www.w3.org/2000/svg">
<g clip-path="url(#clip0_43_950)">
<path d="M10.7437 7.70623V14.6812H3.7687V7.70623H10.7437ZM11.25 6.69373H3.26245C2.9812 6.69373 2.7562 6.91873 2.7562 7.19998V15.1875C2.7562 15.4687 2.9812 15.6937 3.26245 15.6937H11.25C11.5312 15.6937 11.7562 15.4687 11.7562 15.1875V7.19998C11.7562 6.91873 11.5312 6.69373 11.25 6.69373ZM7.42495 9.11248C7.87495 9.11248 8.21245 9.22498 8.4937 9.39373C8.77495 9.56248 8.88745 9.89998 8.88745 10.2375C8.88745 10.4625 8.8312 10.6875 8.66245 10.8562C8.54995 11.025 8.32495 11.1937 8.0437 11.3625C8.3812 11.5312 8.66245 11.7562 8.77495 11.925C8.9437 12.15 8.99995 12.375 8.99995 12.6C8.99995 12.9937 8.8312 13.275 8.54995 13.5562C8.2687 13.7812 7.87495 13.8937 7.3687 13.8937C6.86245 13.8937 6.4687 13.7812 6.1312 13.5562C5.84995 13.3312 5.6812 13.05 5.6812 12.6C5.6812 12.3187 5.73745 12.0937 5.9062 11.8687C6.07495 11.6437 6.29995 11.475 6.5812 11.3062C6.29995 11.1375 6.1312 10.9687 6.0187 10.7437C5.9062 10.575 5.84995 10.35 5.84995 10.125C5.84995 9.78748 5.96245 9.50623 6.2437 9.28123C6.63745 9.22498 6.97495 9.11248 7.42495 9.11248ZM6.6937 12.6562C6.6937 12.825 6.74995 12.9937 6.86245 13.1062C6.97495 13.2187 7.1437 13.275 7.3687 13.275C7.5937 13.275 7.8187 13.2187 7.9312 13.1062C8.0437 12.9937 8.09995 12.8812 8.09995 12.7125C8.09995 12.5437 8.0437 12.4312 7.9312 12.3187C7.8187 12.2062 7.5937 12.0375 7.3687 11.925C6.9187 12.0375 6.6937 12.3187 6.6937 12.6562ZM7.42495 9.84373C7.2562 9.84373 7.1437 9.89998 7.0312 9.95623C6.9187 10.0125 6.86245 10.1812 6.86245 10.2937C6.86245 10.4062 6.9187 10.5187 6.97495 10.6312C7.0312 10.7437 7.19995 10.8562 7.42495 10.9687C7.64995 10.8562 7.76245 10.7437 7.87495 10.6875C7.9312 10.575 7.98745 10.4625 7.98745 10.35C7.98745 10.1812 7.9312 10.0687 7.8187 10.0125C7.7062 9.95623 7.5937 9.84373 7.42495 9.84373ZM2.7562 7.70623V14.6812H-4.2188V7.70623H2.7562ZM3.26245 6.69373H-4.6688C-4.95005 6.69373 -5.17505 6.91873 -5.17505 7.19998V15.1875C-5.17505 15.4687 -4.95005 15.6937 -4.6688 15.6937H3.26245C3.5437 15.6937 3.7687 15.4687 3.7687 15.1875V7.19998C3.7687 6.91873 3.5437 6.69373 3.26245 6.69373ZM-1.68755 13.8937L0.0562015 10.0125H-2.25005V9.16873H1.12495V9.78748L-0.675049 13.8375H-1.68755V13.8937ZM18.7312 7.70623V14.6812H11.7562V7.70623H18.7312ZM19.2375 6.69373H11.25C10.9687 6.69373 10.7437 6.91873 10.7437 7.19998V15.1875C10.7437 15.4687 10.9687 15.6937 11.25 15.6937H19.2375C19.5187 15.6937 19.7437 15.4687 19.7437 15.1875V7.19998C19.7437 6.91873 19.5187 6.69373 19.2375 6.69373ZM17.0437 10.9125C17.0437 11.8125 16.875 12.5437 16.4812 12.9937C16.0875 13.4437 15.525 13.6687 14.7375 13.6687C14.4562 13.6687 14.2312 13.6687 14.1187 13.6125V12.825C14.2875 12.8812 14.5125 12.8812 14.6812 12.8812C15.0187 12.8812 15.3 12.825 15.525 12.7125C15.75 12.6 15.9187 12.4875 16.0312 12.2625C16.1437 12.0375 16.2 11.7562 16.2 11.4187H16.1437C16.0312 11.6437 15.8624 11.7562 15.6937 11.8687C15.525 11.9812 15.3 11.9812 15.075 11.9812C14.6812 11.9812 14.3437 11.8687 14.1187 11.5875C13.8937 11.3062 13.7812 10.9687 13.7812 10.5187C13.7812 10.0125 13.95 9.61873 14.2312 9.33748C14.5125 9.05623 14.9062 8.88748 15.4125 8.88748C15.75 8.88748 16.0875 8.94373 16.3125 9.11248C16.5937 9.28123 16.7625 9.50623 16.9312 9.84373C16.9875 10.125 17.0437 10.4625 17.0437 10.9125ZM15.3562 9.67498C15.1312 9.67498 14.9625 9.73123 14.85 9.89998C14.7374 10.0687 14.6812 10.2375 14.6812 10.5187C14.6812 10.7437 14.7374 10.9125 14.85 11.0812C14.9625 11.25 15.1312 11.3062 15.3562 11.3062C15.5812 11.3062 15.75 11.25 15.8625 11.0812C16.0312 10.9687 16.0875 10.8 16.0875 10.6312C16.0875 10.35 16.0312 10.1812 15.8625 10.0125C15.6937 9.73123 15.525 9.67498 15.3562 9.67498ZM26.7187 7.70623V14.6812H19.7437V7.70623H26.7187ZM27.1687 6.69373H19.2375C18.9562 6.69373 18.7312 6.91873 18.7312 7.19998V15.1875C18.7312 15.4687 18.9562 15.6937 19.2375 15.6937H27.225C27.5062 15.6937 27.7312 15.4687 27.7312 15.1875V7.19998C27.6749 6.91873 27.45 6.69373 27.1687 6.69373ZM22.1625 13.6125H21.15V10.9125V10.4625V9.95623C20.9812 10.125 20.8687 10.2375 20.8125 10.2937L20.25 10.7437L19.8562 10.125L21.375 8.94373H22.2187V13.6125H22.1625ZM26.7187 11.25C26.7187 12.0937 26.6062 12.6562 26.325 13.05C26.0437 13.4437 25.65 13.6687 25.0875 13.6687C24.525 13.6687 24.1312 13.4437 23.85 13.05C23.5687 12.6562 23.4562 12.0375 23.4562 11.25C23.4562 10.4062 23.5687 9.78748 23.85 9.39373C24.1312 8.99998 24.525 8.83123 25.0875 8.83123C25.65 8.83123 26.0437 9.05623 26.325 9.44998C26.6062 9.84373 26.7187 10.4625 26.7187 11.25ZM24.4687 11.25C24.4687 11.8125 24.525 12.2625 24.6375 12.4875C24.75 12.7125 24.9187 12.8812 25.1437 12.8812C25.3687 12.8812 25.5375 12.7687 25.65 12.4875C25.7625 12.2625 25.8187 11.8125 25.8187 11.25C25.8187 10.6875 25.7625 10.2375 25.65 10.0125C25.5375 9.78748 25.3687 9.61873 25.1437 9.61873C24.9187 9.61873 24.75 9.73123 24.6375 10.0125C24.525 10.2937 24.4687 10.6875 24.4687 11.25Z" fill="black"/>
</g>
<defs>
<clipPath id="clip0_43_950">
<rect width="22.5" height="22.5" fill="white"/>
</clipPath>
</defs>
</svg>
