<svg width="23" height="23" viewBox="0 0 23 23" fill="none" xmlns="http://www.w3.org/2000/svg">
<path d="M5.0625 1.125C3.4875 1.125 2.25 2.3625 2.25 3.9375C2.25 5.5125 3.4875 6.75 5.0625 6.75C6.6375 6.75 7.875 5.5125 7.875 3.9375C7.875 2.3625 6.6375 1.125 5.0625 1.125ZM5.0625 6.1875C3.825 6.1875 2.8125 5.175 2.8125 3.9375C2.8125 2.7 3.825 1.6875 5.0625 1.6875C6.3 1.6875 7.3125 2.7 7.3125 3.9375C7.3125 5.175 6.3 6.1875 5.0625 6.1875ZM5.0625 9.84375C4.275 9.84375 3.65625 10.4625 3.65625 11.25C3.65625 12.0375 4.275 12.6562 5.0625 12.6562C5.85 12.6562 6.46875 12.0375 6.46875 11.25C6.46875 10.4625 5.85 9.84375 5.0625 9.84375ZM5.0625 8.4375C3.4875 8.4375 2.25 9.675 2.25 11.25C2.25 12.825 3.4875 14.0625 5.0625 14.0625C6.6375 14.0625 7.875 12.825 7.875 11.25C7.875 9.675 6.6375 8.4375 5.0625 8.4375ZM5.0625 13.5C3.825 13.5 2.8125 12.4875 2.8125 11.25C2.8125 10.0125 3.825 9 5.0625 9C6.3 9 7.3125 10.0125 7.3125 11.25C7.3125 12.4875 6.3 13.5 5.0625 13.5ZM5.0625 15.75C3.4875 15.75 2.25 16.9875 2.25 18.5625C2.25 20.1375 3.4875 21.375 5.0625 21.375C6.6375 21.375 7.875 20.1375 7.875 18.5625C7.875 16.9875 6.6375 15.75 5.0625 15.75ZM5.0625 20.8125C3.825 20.8125 2.8125 19.8 2.8125 18.5625C2.8125 17.325 3.825 16.3125 5.0625 16.3125C6.3 16.3125 7.3125 17.325 7.3125 18.5625C7.3125 19.8 6.3 20.8125 5.0625 20.8125ZM9.5625 2.475H20.8125V3.43125H9.5625V2.475ZM9.5625 4.44375H16.5938V5.4H9.5625V4.44375ZM9.5625 9.73125H20.8125V10.6875H9.5625V9.73125ZM9.5625 11.6438H16.5938V12.6H9.5625V11.6438ZM9.5625 17.1H20.8125V18.0562H9.5625V17.1ZM9.5625 19.0688H16.5938V20.025H9.5625V19.0688Z" fill="black"/>
</svg>
