<svg width="23" height="23" viewBox="0 0 23 23" fill="none" xmlns="http://www.w3.org/2000/svg">
<path d="M14.5312 10.3125C15.3079 10.3125 15.9375 9.6829 15.9375 8.90625C15.9375 8.1296 15.3079 7.5 14.5312 7.5C13.7546 7.5 13.125 8.1296 13.125 8.90625C13.125 9.6829 13.7546 10.3125 14.5312 10.3125Z" fill="black"/>
<path d="M7.96875 10.3125C8.7454 10.3125 9.375 9.6829 9.375 8.90625C9.375 8.1296 8.7454 7.5 7.96875 7.5C7.1921 7.5 6.5625 8.1296 6.5625 8.90625C6.5625 9.6829 7.1921 10.3125 7.96875 10.3125Z" fill="black"/>
<path d="M11.2406 1.875C6.06562 1.875 1.875 6.075 1.875 11.25C1.875 16.425 6.06562 20.625 11.2406 20.625C16.425 20.625 20.625 16.425 20.625 11.25C20.625 6.075 16.425 1.875 11.2406 1.875ZM11.25 18.75C7.10625 18.75 3.75 15.3938 3.75 11.25C3.75 7.10625 7.10625 3.75 11.25 3.75C15.3938 3.75 18.75 7.10625 18.75 11.25C18.75 15.3938 15.3938 18.75 11.25 18.75ZM11.25 15C10.5656 15 9.95625 14.8312 9.4125 14.5125C9.3 14.6437 8.60625 15.4312 8.46562 15.5906C9.27187 16.1062 10.2188 16.4062 11.25 16.4062C12.2906 16.4062 13.2375 16.0969 14.0437 15.5813C13.1344 14.5594 14.0344 15.5625 13.0969 14.5031C12.5437 14.8313 11.9344 15 11.25 15Z" fill="black"/>
</svg>
