<svg width="26" height="26" viewBox="0 0 26 26" fill="none" xmlns="http://www.w3.org/2000/svg">
    <path
        d="M26 10.109C26 10.39 25.797 10.656 25.594 10.859L19.922 16.39L21.266 24.202C21.282 24.311 21.282 24.405 21.282 24.515C21.282 24.921 21.095 25.296 20.641 25.296C20.422 25.296 20.203 25.218 20.016 25.109L13 21.422L5.98402 25.109C5.78102 25.218 5.57802 25.296 5.35902 25.296C4.90602 25.296 4.70302 24.921 4.70302 24.515C4.70302 24.406 4.71902 24.312 4.73402 24.202L6.07802 16.39L0.390023 10.859C0.203023 10.656 -0.000976562 10.39 -0.000976562 10.109C-0.000976562 9.64002 0.483023 9.45302 0.874023 9.39002L8.71802 8.24902L12.234 1.14002C12.375 0.843023 12.64 0.499023 13 0.499023C13.36 0.499023 13.625 0.843023 13.766 1.14002L17.282 8.24902L25.126 9.39002C25.501 9.45302 26 9.64002 26 10.109Z"
        fill="#d1d1d1" />
</svg>